Coordinates
version=1
nRows=14
nColumns=36
inDegrees=yes

Units are S.I. units (second, meters, Newtons, ...)
If the header above contains a line with 'inDegrees', this indicates whether rotational values are in degrees (yes) or radians (no).

endheader
time	pelvis_tilt	pelvis_list	pelvis_rotation	pelvis_tx	pelvis_ty	pelvis_tz	hip_flexion_r	hip_adduction_r	hip_rotation_r	knee_angle_r	knee_angle_r_beta	ankle_angle_r	subtalar_angle_r	mtp_angle_r	hip_flexion_l	hip_adduction_l	hip_rotation_l	knee_angle_l	knee_angle_l_beta	ankle_angle_l	subtalar_angle_l	mtp_angle_l	lumbar_extension	lumbar_bending	lumbar_rotation	arm_flex_r	arm_add_r	arm_rot_r	elbow_flex_r	pro_sup_r	arm_flex_l	arm_add_l	arm_rot_l	elbow_flex_l	pro_sup_l
      4.36666670	    -29.83084121	      0.32989015	      2.19030552	     -0.32691550	      0.69327016	      0.11680533	     85.67095977	     -8.56030691	      1.90667068	     74.76198175	      1.30484274	     20.46547543	     -7.75337905	     -7.49999987	     84.51701151	     -9.99677576	      3.86019340	     72.50315341	      1.26541875	     16.92897705	     -2.26553680	     -7.49999987	    -25.13013682	     -1.00838055	     -2.12112350	     67.15396088	      0.96456369	     76.77801879	    126.82965327	     95.72217647	     62.97463810	     -5.16669262	     67.56335433	    133.45161379	     98.43855570
      4.38333330	    -28.98284485	      0.38924295	      2.27782030	     -0.32646670	      0.70488180	      0.11772386	     83.14690590	     -8.43543447	      1.89015484	     72.61345248	      1.26734383	     20.33423214	     -7.82553292	     -7.49999987	     81.90369173	     -9.90248696	      3.56448240	     70.05110113	      1.22262236	     16.51037117	     -2.03234326	     -7.49999987	    -24.96701161	     -1.19876276	     -2.23310539	     66.00991474	      0.89901923	     76.78853990	    126.78377829	     97.22037396	     62.11028486	     -5.03365099	     67.04548697	    133.33638606	     99.16234589
      4.40000000	    -28.40817748	      0.38955569	      2.41135286	     -0.32242809	      0.71627724	      0.11823456	     80.79351828	     -8.24802700	      1.94401851	     70.45818278	      1.22972727	     20.13069382	     -7.90558571	     -7.49999987	     79.55697666	     -9.73808599	      3.36455433	     67.44812306	      1.17719182	     15.39027340	     -2.30318497	     -7.49999987	    -24.48982300	     -1.27710933	     -2.35669169	     64.67304421	      0.77808805	     76.26700512	    126.89546559	    100.73000853	     61.31364868	     -4.85499766	     66.76240630	    133.19885710	    100.67067131
      4.41666670	    -27.89898016	      0.39103628	      2.59741369	     -0.31676144	      0.72836293	      0.11893554	     78.26985967	     -8.12289833	      1.88636042	     68.12020957	      1.18892194	     19.95668659	     -8.12327398	     -7.49999987	     77.06927428	     -9.63433228	      3.10846692	     64.69318190	      1.12910903	     14.52213727	     -2.04850717	     -7.49999987	    -23.94928970	     -1.32241369	     -2.60947471	     63.20194636	      0.73930834	     75.97074228	    127.04431857	    101.23000073	     60.45606201	     -4.93880947	     66.47313653	    133.29145826	    100.22948249
      4.43333330	    -27.54580548	      0.34390797	      2.73624829	     -0.31480786	      0.74020298	      0.12034490	     76.16143557	     -7.96960616	      1.73089495	     65.77919025	      1.14806345	     19.37422287	     -8.10876231	     -7.49999987	     74.84216880	     -9.61196837	      2.88800419	     62.04488880	      1.08288759	     13.75796054	     -1.41660595	     -7.49999987	    -23.04806344	     -1.34451304	     -2.72911921	     61.90984600	      0.63422931	     75.63553200	    126.99393519	    101.04714615	     59.39460680	     -4.98082162	     66.55759292	    133.27982653	    100.02684250
      4.45000000	    -26.64479197	      0.49929373	      2.66138815	     -0.31324340	      0.75121734	      0.12102007	     73.66912024	     -7.63842180	      1.89391660	     63.40808839	      1.10667991	     18.04675991	     -8.96236893	     -7.49999987	     72.01423150	     -9.65305824	      2.51768521	     59.42323205	      1.03713105	     13.50314068	     -0.64178967	     -7.49999987	    -22.97623322	     -1.68077815	     -2.83383323	     60.98768547	      0.78656871	     74.27847621	    127.03314980	    100.51103589	     58.86817875	     -5.02035295	     66.27857654	    133.44498200	     99.00718339
      4.46666670	    -26.05982314	      0.69969695	      2.78669181	     -0.30989734	      0.76288000	      0.12167592	     71.55292212	     -7.59332204	      1.90623884	     61.10615274	      1.06650356	     16.77388362	     -9.46012389	     -7.49999987	     69.38955655	     -9.48190753	      1.98771291	     56.56053212	      0.98716751	     13.16102727	      0.15314005	     -7.49999987	    -22.29740489	     -1.91575021	     -2.93860344	     59.96363520	      0.84530550	     73.01464283	    126.80789475	    100.57251758	     57.89490835	     -5.02668795	     66.30200336	    133.55935769	     98.91279363
      4.48333330	    -25.58045100	      0.71469696	      2.77497023	     -0.30741880	      0.77200271	      0.12208200	     69.61069065	     -7.47156397	      1.64315874	     58.79519607	      1.02616976	     15.97288580	     -9.49793480	     -7.49999987	     67.17965073	     -9.47669086	      1.72561180	     54.13888948	      0.94490187	     12.91925849	      0.73958482	     -7.49999987	    -21.25722609	     -1.92457545	     -2.83823034	     58.78603837	      0.80411654	     71.78149031	    126.63578674	     98.24219216	     56.76571078	     -4.98250024	     65.95909067	    133.75233378	     96.63634278
      4.50000000	    -24.70266056	      0.92665476	      2.88750892	     -0.30093555	      0.78185725	      0.12376826	     67.15825059	     -7.41383237	      1.57954783	     56.49659506	      0.98605160	     14.53401126	    -10.60691866	     -7.49999987	     64.40663130	     -9.44285412	      1.09625813	     51.56774332	      0.90002691	     12.63127423	      1.77782855	     -7.49999987	    -20.68036802	     -2.25399094	     -2.90713228	     57.69557262	      1.14734002	     70.87792911	    126.29752059	     99.06804722	     55.98699017	     -5.05191204	     66.38032171	    134.12092304	     97.14389163
      4.51666670	    -24.36049326	      0.94680368	      3.08187042	     -0.29587843	      0.79163444	      0.12412820	     65.13829003	     -7.49835598	      1.11613710	     54.10442275	      0.94430032	     13.93116788	    -10.53259440	     -7.49999987	     62.33711207	     -9.31314224	      0.74943600	     49.23679215	      0.85934414	     12.09023284	      2.48545281	     -7.49999987	    -19.18443516	     -2.34729641	     -2.77348762	     56.07199994	      1.44687353	     71.11885261	    126.26519767	     99.22162842	     54.45098235	     -4.88999781	     66.87921320	    134.39934237	     97.23915488
      4.53333330	    -23.44719613	      0.97723136	      2.84616819	     -0.29637967	      0.80078683	      0.12413887	     62.63856943	     -7.18690293	      0.92039058	     51.83605482	      0.90470983	     12.85739431	    -11.26321949	     -7.49999987	     60.03991369	     -9.40213245	      0.39968103	     47.10836133	      0.82219601	     11.24133957	      2.60036088	     -7.49999987	    -18.48008377	     -2.46055155	     -2.63674447	     55.04108483	      1.98629051	     70.90883791	    126.00406280	     99.71222263	     53.73508817	     -4.77055038	     66.42981837	    134.53567137	     97.41193285
      4.55000000	    -22.85161586	      1.00271054	      2.81724715	     -0.29107094	      0.80804619	      0.12154187	     60.38564188	     -7.22840081	      0.72673313	     49.67972328	      0.86707474	     12.53943760	    -11.00895630	     -7.49999987	     58.09610856	     -9.22723916	      0.16620804	     45.21060277	      0.78907388	     10.29946919	      2.49510879	     -7.49999987	    -17.12579091	     -2.35321762	     -2.65574550	     53.52995986	      2.26280518	     70.70740973	    126.06194054	    101.23011390	     52.44789390	     -4.56555099	     65.81945108	    134.63835371	     97.52417431
      4.56666670	    -22.56466816	      0.95928884	      2.85398864	     -0.28781998	      0.81740444	      0.12111091	     58.17252214	     -7.26861632	      0.45572182	     46.81573244	      0.81708867	     12.21636420	    -10.65800742	     -7.49999987	     56.12861162	     -9.03022570	      0.18338091	     42.90950739	      0.74891218	      9.93352802	      3.17226609	     -7.49999987	    -15.36077340	     -2.22119932	     -2.65981722	     51.85753448	      2.30056359	     70.81263644	    126.34455714	    101.22764695	     51.20953467	     -4.41125470	     65.32458357	    134.57896974	     97.42294027
      4.58333330	    -21.83414080	      0.87183094	      2.89811023	     -0.28625373	      0.82628155	      0.12099986	     55.61946801	     -7.23083079	      0.15619561	     44.28898458	      0.77298860	     11.61714868	    -10.07393489	     -7.49999987	     53.81199110	     -8.79642730	      0.31393111	     40.53038900	      0.70738874	      9.32498456	      3.57253379	     -7.49999987	    -14.21814323	     -1.96057496	     -2.69059133	     50.41771339	      2.45502076	     70.42674089	    126.57515597	    101.20071714	     50.19837213	     -4.13499915	     63.96376353	    134.27653996	     97.15044530
